Coordinates
version=1
nRows=40
nColumns=30
inDegrees=yes

Units are S.I. units (second, meters, Newtons, ...)
Angles are in degrees.

endheader
time	floatyaw	floatroll	floatpitch	floatx	floaty	floatz	pro_sup_l	deviation_l	flexion_l	cmc_flexion_l	cmc_abduction_l	mp_flexion_l	ip_flexion_l	2mcp_flexion_l	2mcp_abduction_l	2pm_flexion_l	2md_flexion_l	3mcp_flexion_l	3mcp_abduction_l	3pm_flexion_l	3md_flexion_l	4mcp_flexion_l	4mcp_abduction_l	4pm_flexion_l	4md_flexion_l	5mcp_flexion_l	5mcp_abduction_l	5pm_flexion_l	5md_flexion_l
-1.495000	-0.845308	-4.283240	94.249796	-0.007057	-0.268654	-0.000656	89.689718	-0.826084	-1.907524	26.434898	3.213108	-18.452069	-33.179223	18.470435	5.469268	33.036926	20.661796	8.305029	3.873558	35.324308	21.300690	-1.631698	-3.286323	52.239378	33.215646	-20.222005	-9.000709	59.796010	49.338090
-1.485000	-0.845308	-4.283240	94.249796	-0.007070	-0.268643	-0.000650	89.663364	-0.835870	-1.898638	26.418795	3.250571	-18.456855	-33.158644	18.485254	5.464069	32.987540	20.661291	8.288691	3.879939	35.316146	21.329455	-1.620813	-3.294904	52.194881	33.221566	-20.242129	-8.999427	59.744795	49.330110
-1.475000	-0.845308	-4.283240	94.249796	-0.007080	-0.268624	-0.000653	89.643127	-0.842330	-1.887563	26.391995	3.278388	-18.450066	-33.128235	18.492082	5.460689	32.946145	20.669508	8.275186	3.886459	35.305408	21.362667	-1.615362	-3.304141	52.165171	33.226729	-20.256974	-8.997050	59.698295	49.318974
-1.465000	-0.845308	-4.283240	94.249796	-0.007087	-0.268604	-0.000661	89.628051	-0.847043	-1.875580	26.357632	3.296137	-18.433554	-33.092459	18.486680	5.457219	32.918436	20.685001	8.262535	3.892751	35.295671	21.396787	-1.619371	-3.312768	52.152759	33.229650	-20.260987	-8.986482	59.647747	49.309080
-1.455000	-0.845308	-4.283240	94.249796	-0.007094	-0.268587	-0.000666	89.614738	-0.852099	-1.863407	26.319696	3.304977	-18.411622	-33.057943	18.465424	5.449428	32.909927	20.707892	8.249289	3.896906	35.288242	21.429524	-1.636682	-3.318862	52.157831	33.230900	-20.256655	-8.963962	59.591891	49.299219
-1.445000	-0.845308	-4.283240	94.249796	-0.007102	-0.268578	-0.000662	89.599144	-0.858932	-1.852180	26.283933	3.308458	-18.392082	-33.031465	18.430142	5.433810	32.921615	20.738965	8.238324	3.895958	35.279989	21.458984	-1.665614	-3.320639	52.175960	33.232890	-20.250390	-8.931251	59.536949	49.286046
-1.435000	-0.845308	-4.283240	94.249796	-0.007111	-0.268577	-0.000646	89.579360	-0.867463	-1.844458	26.259527	3.311826	-18.385334	-33.020453	18.389687	5.410319	32.948543	20.777452	8.237318	3.887687	35.265009	21.482594	-1.696667	-3.317216	52.197906	33.238820	-20.245079	-8.894969	59.490850	49.267940
-1.425000	-0.845308	-4.283240	94.249796	-0.007120	-0.268587	-0.000622	89.557148	-0.876148	-1.843948	26.258326	3.319591	-18.400454	-33.034159	18.356471	5.382947	32.982511	20.819153	8.254550	3.872500	35.239255	21.496983	-1.716446	-3.308955	52.213179	33.251213	-20.236472	-8.863449	59.456473	49.246954
-1.415000	-0.845308	-4.283240	94.249796	-0.007127	-0.268607	-0.000595	89.536667	-0.883042	-1.853565	26.289518	3.332971	-18.439778	-33.081446	18.339915	5.357810	33.016682	20.856483	8.292459	3.853883	35.204618	21.499059	-1.716228	-3.297288	52.215796	33.270527	-20.217261	-8.843075	59.428810	49.228309
-1.405000	-0.845308	-4.283240	94.249796	-0.007131	-0.268638	-0.000569	89.521246	-0.887244	-1.873104	26.352308	3.349378	-18.495592	-33.164363	18.341504	5.340147	33.048174	20.880847	8.344036	3.836999	35.168841	21.487473	-1.699012	-3.284211	52.207947	33.294484	-20.185232	-8.836323	59.397617	49.218047
-1.395000	-0.845308	-4.283240	94.249796	-0.007134	-0.268679	-0.000547	89.510880	-0.889744	-1.898460	26.432248	3.364433	-18.551865	-33.272070	18.354955	5.332185	33.076662	20.886214	8.395474	3.826342	35.140726	21.463458	-1.679288	-3.271673	52.198370	33.318648	-20.147997	-8.842311	59.353421	49.219843
-1.385000	-0.845308	-4.283240	94.249796	-0.007137	-0.268726	-0.000527	89.502530	-0.892991	-1.923200	26.504991	3.374765	-18.590537	-33.381185	18.371126	5.332916	33.100742	20.871811	8.433527	3.823888	35.124063	21.430581	-1.675091	-3.261148	52.196191	33.338066	-20.120040	-8.858732	59.293087	49.232502
-1.375000	-0.845308	-4.283240	94.249796	-0.007144	-0.268775	-0.000506	89.492902	-0.899375	-1.941464	26.546044	3.379542	-18.598796	-33.464087	18.383920	5.339375	33.115757	20.842302	8.452283	3.828710	35.115104	21.393717	-1.697516	-3.253474	52.204464	33.349079	-20.114345	-8.883271	59.222036	49.249849
-1.365000	-0.845308	-4.283240	94.249796	-0.007156	-0.268817	-0.000483	89.481466	-0.909522	-1.950275	26.541101	3.380071	-18.573364	-33.500575	18.393183	5.348340	33.115458	20.805419	8.454596	3.838044	35.105968	21.358013	-1.744485	-3.248943	52.218042	33.350422	-20.134615	-8.913567	59.152444	49.263637
-1.355000	-0.845308	-4.283240	94.249796	-0.007171	-0.268845	-0.000457	89.471696	-0.921383	-1.950113	26.491766	3.378024	-18.520190	-33.486385	18.402903	5.357600	33.096646	20.768815	8.447708	3.848981	35.091707	21.328465	-1.802211	-3.247521	52.227254	33.343314	-20.172904	-8.946395	59.098969	49.267867
-1.345000	-0.845308	-4.283240	94.249796	-0.007185	-0.268853	-0.000437	89.470009	-0.930678	-1.943940	26.414658	3.373402	-18.450863	-33.434776	18.416544	5.366612	33.063126	20.738182	8.437116	3.859714	35.075475	21.309891	-1.852445	-3.249032	52.224422	33.330790	-20.213332	-8.977314	59.074355	49.261468
-1.335000	-0.845308	-4.283240	94.249796	-0.007192	-0.268841	-0.000429	89.482979	-0.932598	-1.935699	26.334977	3.363779	-18.378367	-33.371068	18.433562	5.376547	33.025237	20.717245	8.423762	3.869736	35.067209	21.306437	-1.880331	-3.253149	52.208130	33.316765	-20.238997	-9.001341	59.086501	49.247563
-1.325000	-0.845308	-4.283240	94.249796	-0.007189	-0.268812	-0.000442	89.514049	-0.923947	-1.929202	26.277288	3.345956	-18.314042	-33.322497	18.450105	5.389710	32.994575	20.708530	8.406353	3.879148	35.076448	21.320211	-1.878575	-3.259216	52.182586	33.305254	-20.238169	-9.014258	59.137459	49.230334
-1.315000	-0.845308	-4.283240	94.249796	-0.007173	-0.268773	-0.000479	89.561362	-0.904553	-1.927585	26.256995	3.319086	-18.265965	-33.307334	18.463007	5.408279	32.977492	20.713494	8.386011	3.887713	35.104744	21.349738	-1.847169	-3.266161	52.153737	33.299735	-20.207262	-9.013895	59.223841	49.212041
-1.305000	-0.845308	-4.283240	94.249796	-0.007149	-0.268734	-0.000536	89.617863	-0.877191	-1.932820	26.275472	3.286540	-18.238175	-33.327507	18.473163	5.432724	32.972008	20.731553	8.368468	3.894277	35.143294	21.389437	-1.791121	-3.272751	52.125835	33.302440	-20.150778	-9.000858	59.337645	49.192120
-1.295000	-0.845308	-4.283240	94.249796	-0.007122	-0.268701	-0.000607	89.673335	-0.846314	-1.944777	26.320106	3.254597	-18.230219	-33.367520	18.484921	5.460647	32.970062	20.758772	8.361220	3.896873	35.177439	21.430716	-1.719177	-3.278206	52.100883	33.313574	-20.080025	-8.978396	59.466754	49.168758
-1.285000	-0.845308	-4.283240	94.249796	-0.007097	-0.268679	-0.000685	89.717178	-0.816441	-1.960250	26.368711	3.228964	-18.237008	-33.400104	18.501769	5.486927	32.963392	20.787629	8.367549	3.893503	35.195033	21.464367	-1.643989	-3.282718	52.080560	33.330860	-20.011271	-8.951331	59.595545	49.142003
-1.275000	-0.845308	-4.283240	94.249796	-0.007079	-0.268666	-0.000760	89.741185	-0.790949	-1.973223	26.397071	3.211911	-18.249546	-33.397223	18.521954	5.505547	32.949233	20.808905	8.382490	3.883293	35.193292	21.483351	-1.581263	-3.287325	52.068252	33.349829	-19.961988	-8.924452	59.706766	49.116131
-1.265000	-0.845308	-4.283240	94.249796	-0.007068	-0.268657	-0.000828	89.742127	-0.771567	-1.977226	26.387869	3.201890	-18.257227	-33.343011	18.537934	5.512441	32.932206	20.815295	8.394799	3.867447	35.179747	21.484783	-1.545473	-3.292979	52.068800	33.364903	-19.944487	-8.901148	59.785319	49.098848
-1.255000	-0.845308	-4.283240	94.249796	-0.007066	-0.268650	-0.000884	89.723476	-0.758533	-1.968894	26.338030	3.195348	-18.251694	-33.242815	18.540632	5.507777	32.921234	20.804803	8.394256	3.849360	35.166804	21.470260	-1.543307	-3.299458	52.085627	33.371037	-19.959585	-8.883058	59.822965	49.097018
-1.245000	-0.845308	-4.283240	94.249796	-0.007068	-0.268640	-0.000923	89.694662	-0.751268	-1.950397	26.260405	3.189560	-18.230781	-33.122085	18.525711	5.496125	32.923448	20.781774	8.379045	3.833664	35.163762	21.444582	-1.569412	-3.305113	52.117191	33.365497	-19.995139	-8.870798	59.821548	49.111783
-1.235000	-0.845308	-4.283240	94.249796	-0.007073	-0.268631	-0.000943	89.666973	-0.749377	-1.928780	26.177533	3.185277	-18.200187	-33.013733	18.497416	5.484166	32.939025	20.754892	8.357665	3.824647	35.171359	21.413758	-1.608400	-3.307840	52.155363	33.349017	-20.031899	-8.864996	59.792161	49.136818
-1.225000	-0.845308	-4.283240	94.249796	-0.007079	-0.268625	-0.000939	89.647829	-0.753534	-1.912342	26.110182	3.187587	-18.171343	-32.940886	18.467142	5.477204	32.960125	20.733278	8.344009	3.824839	35.181531	21.383223	-1.642647	-3.306642	52.187073	33.325538	-20.053810	-8.866624	59.749643	49.161063
-1.215000	-0.845308	-4.283240	94.249796	-0.007088	-0.268629	-0.000907	89.637165	-0.765562	-1.906388	26.067496	3.203459	-18.156150	-32.906121	18.447600	5.476541	32.974475	20.722725	8.349147	3.834334	35.181693	21.356736	-1.661105	-3.302625	52.198805	33.300461	-20.056317	-8.876268	59.705070	49.173989
-1.205000	-0.845308	-4.283240	94.249796	-0.007102	-0.268647	-0.000847	89.628620	-0.787242	-1.911095	26.044784	3.236617	-18.161213	-32.893758	18.446253	5.479264	32.971511	20.723900	8.375163	3.851043	35.161069	21.336244	-1.663742	-3.298674	52.182153	33.278479	-20.047509	-8.892919	59.661148	49.170245
-1.195000	-0.845308	-4.283240	94.249796	-0.007124	-0.268681	-0.000763	89.614699	-0.818294	-1.922644	26.029936	3.283130	-18.184941	-32.882675	18.461919	5.480441	32.947962	20.733386	8.414307	3.871610	35.116466	21.322795	-1.659221	-3.297956	52.137846	33.262354	-20.041917	-8.913357	59.614035	49.151613
-1.185000	-0.845308	-4.283240	94.249796	-0.007154	-0.268730	-0.000666	89.592217	-0.854917	-1.936443	26.014027	3.331376	-18.219429	-32.860843	18.486155	5.476287	32.910082	20.746825	8.453183	3.892537	35.055072	21.317965	-1.657849	-3.302180	52.076011	33.253146	-20.051548	-8.932875	59.560603	49.125991
-1.175000	-0.845308	-4.283240	94.249796	-0.007189	-0.268791	-0.000572	89.564274	-0.890228	-1.950009	25.999039	3.367155	-18.255909	-32.832721	18.508235	5.466364	32.871284	20.761916	8.479052	3.911074	34.992772	21.324507	-1.664604	-3.310666	52.012247	33.251141	-20.079870	-8.947101	59.505660	49.104148
-1.165000	-0.845308	-4.283240	94.249796	-0.007220	-0.268858	-0.000499	89.537741	-0.916757	-1.963695	25.997289	3.381052	-18.289762	-32.815491	18.520750	5.453666	32.846178	20.778921	8.484871	3.925630	34.948369	21.345111	-1.676593	-3.320769	51.961495	33.256368	-20.121579	-8.953750	59.463033	49.095481
-1.155000	-0.845308	-4.283240	94.249796	-0.007241	-0.268925	-0.000457	89.518451	-0.929641	-1.979237	26.022719	3.373288	-18.321475	-32.826991	18.522724	5.442779	32.844060	20.798403	8.470983	3.935679	34.936228	21.379700	-1.686049	-3.329330	51.932810	33.268410	-20.166791	-8.953086	59.448693	49.104413
-1.145000	-0.845308	-4.283240	94.249796	-0.007247	-0.268984	-0.000451	89.507592	-0.928559	-1.997486	26.080270	3.352898	-18.353409	-32.873681	18.518766	5.437329	32.865300	20.818527	8.443402	3.941331	34.960748	21.423366	-1.686358	-3.334266	51.927547	33.286084	-20.206277	-8.946848	59.470520	49.129036
-1.135000	-0.845308	-4.283240	94.249796	-0.007237	-0.269031	-0.000474	89.501482	-0.917271	-2.017009	26.161093	3.331991	-18.385687	-32.946756	18.515316	5.438218	32.902288	20.834836	8.410320	3.942819	35.015109	21.467138	-1.676921	-3.335402	51.941497	33.307582	-20.235118	-8.936647	59.522600	49.162746
-1.125000	-0.845308	-4.283240	94.249796	-0.007214	-0.269061	-0.000519	89.494438	-0.901098	-2.034365	26.246740	3.319059	-18.414605	-33.028117	18.516701	5.443490	32.943790	20.843013	8.378854	3.940185	35.084685	21.501723	-1.663739	-3.334144	51.969245	33.330905	-20.253931	-8.923198	59.588951	49.197899
-1.115000	-0.845308	-4.283240	94.249796	-0.007185	-0.269073	-0.000575	89.482702	-0.883936	-2.045653	26.318865	3.315217	-18.434399	-33.100757	18.523278	5.449673	32.980017	20.842278	8.353342	3.933272	35.153302	21.521848	-1.655582	-3.332279	52.007693	33.353987	-20.267833	-8.906939	59.654331	49.229045
-1.105000	-0.845308	-4.283240	94.249796	-0.007153	-0.269066	-0.000639	89.467147	-0.866545	-2.048189	26.367871	3.314791	-18.440570	-33.156242	18.532015	5.453703	33.006029	20.836413	8.335274	3.921997	35.209404	21.528265	-1.658508	-3.330685	52.056535	33.374329	-20.283510	-8.889250	59.714264	49.253639
